<svg width="253" height="78" viewBox="0 0 253 78" fill="none" xmlns="http://www.w3.org/2000/svg">
<g clip-path="url(#clip0_103_1576)">
<path d="M234.05 0.000366211H18.8205C8.5864 0.000366211 0.290039 8.29673 0.290039 18.5308V59.1467C0.290039 69.3808 8.5864 77.6772 18.8205 77.6772H234.05C244.284 77.6772 252.58 69.3808 252.58 59.1467V18.5308C252.58 8.29673 244.284 0.000366211 234.05 0.000366211Z" fill="white"/>
<path d="M99.5616 25.8014C99.5616 26.9633 99.2178 27.8874 98.5285 28.5782C97.7457 29.3978 96.7265 29.8092 95.4724 29.8092C94.2183 29.8092 93.2512 29.3932 92.4116 28.5613C91.5704 27.7293 91.1514 26.6963 91.1514 25.4652C91.1514 24.2341 91.5704 23.2011 92.4116 22.3691C93.2512 21.5371 94.272 21.1196 95.4724 21.1196C96.068 21.1196 96.6374 21.2363 97.1793 21.4681C97.7211 21.7014 98.1555 22.0099 98.481 22.3967L97.7503 23.1289C97.1992 22.4704 96.441 22.1419 95.4739 22.1419C94.5974 22.1419 93.8407 22.4489 93.2021 23.0645C92.5636 23.68 92.2443 24.4797 92.2443 25.4637C92.2443 26.4476 92.5636 27.2458 93.2021 27.8629C93.8407 28.4784 94.5974 28.7854 95.4739 28.7854C96.4026 28.7854 97.1777 28.4753 97.7964 27.8567C98.1985 27.453 98.4318 26.8927 98.4932 26.1713H95.4724V25.172H99.5033C99.5432 25.39 99.5616 25.5972 99.5616 25.7998V25.8014Z" fill="#151522"/>
<path d="M105.952 22.3283H102.164V24.9655H105.579V25.9647H102.164V28.6019H105.952V29.6242H101.097V21.306H105.952V22.3283Z" fill="#151522"/>
<path d="M110.458 29.6226H109.388V22.3267H107.065V21.3044H112.782V22.3267H110.459V29.6226H110.458Z" fill="#151522"/>
<path d="M116.916 29.6226V21.3044H117.984V29.6226H116.916Z" fill="#151522"/>
<path d="M122.725 29.6226H121.655V22.3267H119.333V21.3044H125.048V22.3267H122.725V29.6226Z" fill="#151522"/>
<path d="M135.868 28.5479C135.05 29.3891 134.034 29.8081 132.818 29.8081C131.603 29.8081 130.586 29.3891 129.77 28.5479C128.952 27.7083 128.545 26.6798 128.545 25.4641C128.545 24.2484 128.952 23.2199 129.77 22.3803C130.586 21.5391 131.603 21.1185 132.818 21.1185C134.034 21.1185 135.041 21.5407 135.862 22.3849C136.682 23.2291 137.093 24.2545 137.093 25.4626C137.093 26.6706 136.685 27.7067 135.868 28.5464V28.5479ZM130.559 27.851C131.174 28.4742 131.928 28.7858 132.818 28.7858C133.709 28.7858 134.464 28.4742 135.078 27.851C135.693 27.2278 136.002 26.4311 136.002 25.4641C136.002 24.4971 135.693 23.7004 135.078 23.0772C134.464 22.454 133.709 22.1424 132.818 22.1424C131.928 22.1424 131.174 22.454 130.559 23.0772C129.945 23.7004 129.636 24.4971 129.636 25.4641C129.636 26.4311 129.945 27.2278 130.559 27.851Z" fill="#151522"/>
<path d="M138.593 29.6226V21.3044H139.894L143.936 27.7744H143.982L143.936 26.1719V21.3044H145.006V29.6226H143.89L139.661 22.8394H139.615L139.661 24.442V29.6226H138.593Z" fill="#151522"/>
<path d="M128.283 41.7546C126.641 41.7546 125.15 42.384 124.077 43.4462C123.019 44.4915 122.366 45.9559 122.366 47.6505C122.366 49.4434 123.107 50.9876 124.287 52.0452C125.342 52.9908 126.746 53.5464 128.285 53.5464C129.732 53.5464 131.06 53.0537 132.09 52.2094C133.381 51.1503 134.203 49.5386 134.203 47.6505C134.203 46.2521 133.758 45.0103 133.009 44.0325C131.927 42.6203 130.211 41.7546 128.286 41.7546H128.283ZM128.283 51.224C126.496 51.224 124.955 49.7504 124.955 47.6505C124.955 45.5506 126.496 44.0771 128.283 44.0771C130.07 44.0771 131.611 45.5292 131.611 47.6505C131.611 49.7719 130.07 51.224 128.283 51.224ZM115.372 41.7546C114.149 41.7546 113.011 42.103 112.067 42.7186C110.492 43.7455 109.455 45.5138 109.455 47.6505C109.455 49.3482 110.119 50.8218 111.191 51.8717C112.262 52.9217 113.742 53.5464 115.372 53.5464C116.724 53.5464 117.972 53.1166 118.972 52.3706C120.381 51.3176 121.291 49.6368 121.291 47.6505C121.291 46.5177 120.999 45.4877 120.49 44.6174C119.463 42.8629 117.553 41.7546 115.374 41.7546H115.372ZM115.372 51.224C113.585 51.224 112.044 49.7504 112.044 47.6505C112.044 45.5506 113.585 44.0771 115.372 44.0771C117.159 44.0771 118.7 45.5292 118.7 47.6505C118.7 49.7719 117.159 51.224 115.372 51.224ZM100.015 43.5644V46.0649H105.999C105.821 47.4725 105.352 48.4994 104.636 49.2131C103.766 50.0835 102.403 51.0444 100.013 51.0444C96.3275 51.0444 93.4478 48.0742 93.4478 44.3887C93.4478 40.7031 96.329 37.7329 100.013 37.7329C102.001 37.7329 103.453 38.5142 104.524 39.5197L106.288 37.756C104.791 36.3269 102.804 35.2324 100.013 35.2324C98.2984 35.2324 96.6759 35.7067 95.2821 36.531C92.5729 38.1336 90.7217 41.0562 90.7217 44.3887C90.7217 47.7211 92.6895 50.8295 95.54 52.3952C96.8739 53.1274 98.4028 53.5464 100.011 53.5464C102.736 53.5464 104.791 52.6531 106.399 50.9784C108.052 49.3252 108.564 47.0027 108.564 45.127C108.564 44.5468 108.52 44.011 108.431 43.5644H100.011H100.015ZM162.823 45.5077C162.332 44.1906 160.836 41.7561 157.776 41.7561C156.47 41.7561 155.257 42.1982 154.301 42.9826C153.035 44.0203 152.215 45.655 152.215 47.6521C152.215 50.9569 154.716 53.548 158.066 53.548C160.768 53.548 162.332 51.8948 162.98 50.9354L160.971 49.5954C160.301 50.5778 159.385 51.2255 158.068 51.2255C156.751 51.2255 155.812 50.6223 155.21 49.4388L163.094 46.1785L162.825 45.5077H162.823ZM154.783 47.4725C154.716 45.1945 156.547 44.0325 157.865 44.0325C158.892 44.0325 159.764 44.5468 160.054 45.2836L157.3 46.4271L154.783 47.4725ZM148.373 53.1903H150.964V35.8602H148.373V53.1903ZM144.13 43.0732H144.041C143.461 42.3809 142.344 41.7561 140.937 41.7561C139.531 41.7561 138.263 42.3103 137.249 43.2343C136.068 44.3088 135.287 45.8853 135.287 47.6735C135.287 49.7396 136.343 51.5172 137.854 52.561C138.761 53.1872 139.831 53.548 140.937 53.548C142.345 53.548 143.461 52.9232 144.041 52.2079H144.13V53.0568C144.13 55.3132 142.924 56.5182 140.982 56.5182C139.396 56.5182 138.414 55.3792 138.012 54.4183L135.755 55.3562C136.403 56.9188 138.122 58.8406 140.98 58.8406C144.018 58.8406 146.586 57.0539 146.586 52.6991V42.1138H144.13V43.0747V43.0732ZM141.16 51.224C139.373 51.224 137.877 49.7274 137.877 47.6735C137.877 45.6197 139.373 44.0786 141.16 44.0786C142.947 44.0786 144.308 45.5967 144.308 47.6735C144.308 49.7504 142.924 51.224 141.16 51.224ZM174.958 35.8587H168.759V53.1888H171.346V46.6236H174.958C176.606 46.6236 178.238 45.9375 179.328 44.7264C180.134 43.8299 180.642 42.648 180.642 41.2419C180.642 39.8359 180.147 38.6877 179.361 37.7959C178.272 36.5602 176.623 35.8587 174.956 35.8587H174.958ZM175.025 44.2106H171.346V38.2702H175.025C176.959 38.2702 178.057 39.8712 178.057 41.2404C178.057 42.6096 176.959 44.2106 175.025 44.2106ZM191.01 41.7224C189.138 41.7224 187.198 42.5467 186.395 44.3748L188.691 45.3342C189.182 44.3748 190.096 44.0632 191.055 44.0632C192.392 44.0632 193.754 44.866 193.775 46.292V46.4701C193.307 46.203 192.303 45.8009 191.076 45.8009C190.013 45.8009 188.94 46.0526 188.062 46.5423C186.9 47.19 186.082 48.2553 186.082 49.7028C186.082 50.96 186.679 51.9746 187.587 52.6408C188.355 53.2026 189.343 53.5157 190.384 53.5157C192.123 53.5157 193.083 52.736 193.684 51.8211H193.773V53.1581H196.271V46.5146C196.271 44.688 195.462 43.3403 194.183 42.5482C193.308 42.0048 192.214 41.7224 191.009 41.7224H191.01ZM190.699 51.2194C189.852 51.2194 188.67 50.7957 188.67 49.7473C188.67 48.4103 190.142 47.8961 191.413 47.8961C192.55 47.8961 193.084 48.1417 193.777 48.4763C193.575 50.0819 192.194 51.2194 190.7 51.2194H190.699ZM205.369 42.1L204.141 45.2114L202.403 49.6138H202.314L199.238 42.1H196.451L198.676 47.1655L201.065 52.6009L198.434 58.4415H201.131L206.176 46.8477L208.242 42.0984H205.366L205.369 42.1ZM182.071 53.1872H184.657V35.8572H182.071V53.1872Z" fill="#151522"/>
<mask id="mask0_103_1576" style="mask-type:luminance" maskUnits="userSpaceOnUse" x="47" y="20" width="25" height="19">
<path d="M71.1096 32.7895L50.51 20.703C49.457 20.0844 48.2121 20.4389 47.5674 21.3077L65.0141 38.8558L71.1096 32.7895Z" fill="white"/>
</mask>
<g mask="url(#mask0_103_1576)">
<path d="M48.2458 20.0861L47.5674 20.9119V20.0861H48.2458Z" fill="#0CDE75"/>
<path d="M49.2098 20.0861L47.5674 22.0831V20.9119L48.2458 20.0861H49.2098Z" fill="#0BDF75"/>
<path d="M50.1723 20.0861L47.5674 23.2558V22.0831L49.2098 20.0861H50.1723Z" fill="#0BE075"/>
<path d="M51.1347 20.0861L47.5674 24.427V23.2558L50.1723 20.0861H51.1347Z" fill="#0AE175"/>
<path d="M52.0971 20.0861L47.9005 25.193L47.5674 24.9198V24.427L51.1347 20.0861H52.0971Z" fill="#09E275"/>
<path d="M53.061 20.0861L48.476 25.6658L47.9004 25.193L52.0971 20.0861H53.061Z" fill="#09E375"/>
<path d="M54.024 20.0861L49.0507 26.1385L48.4766 25.6658L53.0616 20.0861H54.024Z" fill="#08E475"/>
<path d="M54.9866 20.0861L49.6264 26.6098L49.0508 26.1385L54.0242 20.0861H54.9866Z" fill="#07E575"/>
<path d="M55.9501 20.0861L50.2001 27.0826L49.626 26.6098L54.9862 20.0861H55.9501Z" fill="#07E675"/>
<path d="M56.1289 20.0861L56.5971 20.4698L50.7748 27.5553L50.1992 27.0826L55.9493 20.0861H56.1289Z" fill="#06E775"/>
<path d="M56.5991 20.473L50.7773 27.558L51.7178 28.3308L57.5396 21.2458L56.5991 20.473Z" fill="#06E775"/>
<path d="M57.5395 21.2452L51.7178 28.3302L52.6582 29.103L58.48 22.018L57.5395 21.2452Z" fill="#05E875"/>
<path d="M58.479 22.0175L52.6572 29.1025L53.5977 29.8753L59.4194 22.7903L58.479 22.0175Z" fill="#05E975"/>
<path d="M59.4194 22.791L53.5977 29.876L54.5381 30.6488L60.3599 23.5638L59.4194 22.791Z" fill="#04EA75"/>
<path d="M60.3579 23.5621L54.5361 30.6471L55.4766 31.4199L61.2984 24.3349L60.3579 23.5621Z" fill="#03EC76"/>
<path d="M61.2993 24.336L55.4775 31.421L56.418 32.1938L62.2398 25.1088L61.2993 24.336Z" fill="#02ED76"/>
<path d="M62.2378 25.1076L56.416 32.1926L57.3565 32.9654L63.1782 25.8804L62.2378 25.1076Z" fill="#02EE76"/>
<path d="M63.1792 25.8803L57.3574 32.9653L58.2979 33.7381L64.1196 26.6531L63.1792 25.8803Z" fill="#01EF76"/>
<path d="M64.1186 26.6522L58.2969 33.7372L59.2373 34.51L65.0591 27.425L64.1186 26.6522Z" fill="#00F076"/>
<path d="M65.0566 27.4204L71.1091 32.3938V38.8561H64.5301L59.2344 34.5059L65.0566 27.4204Z" fill="#00F076"/>
</g>
<mask id="mask1_103_1576" style="mask-type:luminance" maskUnits="userSpaceOnUse" x="47" y="21" width="19" height="36">
<path d="M47.1328 54.9752C47.1328 55.4633 47.2817 55.9008 47.5304 56.2553L65.014 38.8577L47.5672 21.3097C47.2971 21.6735 47.1328 22.1278 47.1328 22.6405V54.9767V54.9752Z" fill="white"/>
</mask>
<g mask="url(#mask1_103_1576)">
<path d="M65.0144 49.4106L64.8486 21.3094H65.0144V49.4106Z" fill="#00C7FF"/>
<path d="M64.6549 56.2566L64.4492 21.3094H64.8483L65.0141 49.4106V56.2566H64.6549Z" fill="#00C9FF"/>
<path d="M64.2555 56.2566L64.0498 21.3094H64.4504L64.6561 56.2566H64.2555Z" fill="#00CAFF"/>
<path d="M63.8551 56.2566L63.6494 21.3094H64.0485L64.2542 56.2566H63.8551Z" fill="#00CBFF"/>
<path d="M63.4547 56.2566L63.249 21.3094H63.6497L63.8553 56.2566H63.4547Z" fill="#00CCFF"/>
<path d="M63.0559 56.2566L62.8486 21.3094H63.2493L63.455 56.2566H63.0559Z" fill="#00CDFF"/>
<path d="M62.6549 56.2566L62.4492 21.3094H62.8483L63.0555 56.2566H62.6549Z" fill="#00CEFF"/>
<path d="M62.2561 56.2566L62.0488 21.3094H62.4495L62.6551 56.2566H62.2561Z" fill="#00CFFF"/>
<path d="M61.8551 56.2566L61.6494 21.3094H62.0485L62.2557 56.2566H61.8551Z" fill="#00D0FF"/>
<path d="M61.4553 56.2566L61.248 21.3094H61.6487L61.8544 56.2566H61.4553Z" fill="#00D1FF"/>
<path d="M61.0563 56.2566L60.8506 21.3094H61.2497L61.4569 56.2566H61.0563Z" fill="#00D2FF"/>
<path d="M60.4489 56.2566L60.2432 21.3094H60.8495L61.0552 56.2566H60.4489Z" fill="#00D2FF"/>
<path d="M59.8439 56.2566L59.6367 21.3094H60.243L60.4487 56.2566H59.8439Z" fill="#00D3FF"/>
<path d="M59.2379 56.2566L59.0322 21.3094H59.637L59.8442 56.2566H59.2379Z" fill="#00D4FF"/>
<path d="M58.6315 56.2566L58.4258 21.3094H59.0321L59.2378 56.2566H58.6315Z" fill="#00D5FF"/>
<path d="M58.027 56.2566L57.8213 21.3094H58.4261L58.6318 56.2566H58.027Z" fill="#00D6FF"/>
<path d="M57.4196 56.2566L57.2139 21.3094H57.8202L58.0259 56.2566H57.4196Z" fill="#00D7FF"/>
<path d="M56.8156 56.2566L56.6084 21.3094H57.2147L57.4204 56.2566H56.8156Z" fill="#00D9FF"/>
<path d="M56.2096 56.2566L56.0039 21.3094H56.6087L56.8159 56.2566H56.2096Z" fill="#00DAFF"/>
<path d="M55.6031 56.2566L55.3975 21.3094H56.0038L56.2095 56.2566H55.6031Z" fill="#00DBFF"/>
<path d="M54.9982 56.2566L54.791 21.3094H55.3973L55.603 56.2566H54.9982Z" fill="#00DCFF"/>
<path d="M54.3912 56.2566L54.1855 21.3094H54.7903L54.9976 56.2566H54.3912Z" fill="#00DDFF"/>
<path d="M53.7848 56.2566L53.5791 21.3094H54.1854L54.3911 56.2566H53.7848Z" fill="#00DEFF"/>
<path d="M53.1809 56.2566L52.9736 21.3094H53.58L53.7856 56.2566H53.1809Z" fill="#00DFFF"/>
<path d="M51.2805 56.2566L51.0732 21.3094H52.9736L53.1808 56.2566H51.2805Z" fill="#00DFFF"/>
<path d="M49.3801 56.2566L49.1729 21.3094H51.0732L51.2804 56.2566H49.3801Z" fill="#00E0FF"/>
<path d="M47.4791 56.2566L47.2734 21.3094H49.1738L49.381 56.2566H47.4791Z" fill="#00E2FF"/>
<path d="M47.2725 21.3093L47.4782 56.2565H47.1328V21.3093H47.2725Z" fill="#00E3FF"/>
</g>
<mask id="mask2_103_1576" style="mask-type:luminance" maskUnits="userSpaceOnUse" x="65" y="32" width="15" height="13">
<path d="M71.0077 44.8828L78.0687 40.7399C79.5453 39.8726 79.5453 37.7374 78.0687 36.8717L71.1121 32.7902L65.0166 38.8565L71.0077 44.8828Z" fill="white"/>
</mask>
<g mask="url(#mask2_103_1576)">
<path d="M78.8818 44.8829L79.5434 36.4465V40.7353L79.218 44.8829H78.8818Z" fill="#FFDA00"/>
<path d="M78.5459 44.8824L79.4669 33.1382L79.5436 33.1443V36.4461L78.8821 44.8824H78.5459Z" fill="#FFD900"/>
<path d="M78.209 44.8824L79.1315 33.1121L79.4661 33.1382L78.5451 44.8824H78.209Z" fill="#FFD800"/>
<path d="M77.873 44.8826L78.7971 33.0862L79.1317 33.1123L78.2092 44.8826H77.873Z" fill="#FFD700"/>
<path d="M77.5352 44.8829L78.4638 33.0604L78.7969 33.0865L77.8729 44.8829H77.5352Z" fill="#FFD600"/>
<path d="M77.1992 44.8827L78.1294 33.0326L78.4641 33.0602L77.5354 44.8827H77.1992Z" fill="#FFD500"/>
<path d="M76.8633 44.883L77.795 33.0067L78.1297 33.0328L77.1994 44.883H76.8633Z" fill="#FFD400"/>
<path d="M76.5264 44.8828L77.4596 32.9805L77.7943 33.0066L76.8625 44.8828H76.5264Z" fill="#FFD300"/>
<path d="M76.1914 44.8825L77.1262 32.9541L77.4608 32.9802L76.5276 44.8825H76.1914Z" fill="#FFD200"/>
<path d="M75.8525 44.8824L76.7904 32.9279L77.125 32.954L76.1902 44.8824H75.8525Z" fill="#FFD100"/>
<path d="M75.5166 44.8827L76.456 32.9021L76.7906 32.9282L75.8528 44.8827H75.5166Z" fill="#FFD000"/>
<path d="M75.1807 44.8825L76.1232 32.8757L76.4562 32.9018L75.5168 44.8825H75.1807Z" fill="#FFCF00"/>
<path d="M74.8447 44.8828L75.7887 32.85L76.1234 32.8761L75.1809 44.8828H74.8447Z" fill="#FFCD00"/>
<path d="M74.5088 44.8826L75.4543 32.8237L75.789 32.8498L74.845 44.8826H74.5088Z" fill="#FFCC00"/>
<path d="M74.1709 44.883L75.1195 32.798L75.4542 32.8241L74.5086 44.883H74.1709Z" fill="#FFCB00"/>
<path d="M73.835 44.883L74.7836 32.7903H75.0369L75.1197 32.798L74.1711 44.883H73.835Z" fill="#FFCA00"/>
<path d="M73.499 44.883L74.4476 32.7903H74.7838L73.8352 44.883H73.499Z" fill="#FFC900"/>
<path d="M73.1631 44.883L74.1117 32.7903H74.4479L73.4992 44.883H73.1631Z" fill="#FFC800"/>
<path d="M72.8262 44.883L73.7748 32.7903H74.111L73.1623 44.883H72.8262Z" fill="#FFC700"/>
<path d="M72.4883 44.883L73.4369 32.7903H73.7746L72.826 44.883H72.4883Z" fill="#FFC600"/>
<path d="M72.1514 44.883L73.1 32.7903H73.4362L72.4875 44.883H72.1514Z" fill="#FFC500"/>
<path d="M71.8164 44.883L72.765 32.7903H73.1012L72.1526 44.883H71.8164Z" fill="#FFC400"/>
<path d="M71.4805 44.883L72.4291 32.7903H72.7653L71.8166 44.883H71.4805Z" fill="#FFC300"/>
<path d="M71.1436 44.883L72.0906 32.7903H72.4283L71.4797 44.883H71.1436Z" fill="#FFC200"/>
<path d="M70.8066 44.883L71.7553 32.7903H72.0914L71.1443 44.883H70.8066Z" fill="#FFC100"/>
<path d="M70.4697 44.883L71.4184 32.7903H71.7545L70.8059 44.883H70.4697Z" fill="#FFC000"/>
<path d="M70.1338 44.883L71.0824 32.7903H71.4186L70.47 44.883H70.1338Z" fill="#FFBF00"/>
<path d="M69.7979 44.883L70.7465 32.7903H71.0826L70.134 44.883H69.7979Z" fill="#FFBE00"/>
<path d="M69.4619 44.883L70.409 32.7903H70.7467L69.7981 44.883H69.4619Z" fill="#FFBD00"/>
<path d="M69.0205 44.883L69.9691 32.7903H70.4081L69.4611 44.883H69.0205Z" fill="#FFBD00"/>
<path d="M68.5801 44.883L69.5287 32.7903H69.9693L69.0206 44.883H68.5801Z" fill="#FFBC00"/>
<path d="M68.1396 44.883L69.0883 32.7903H69.5288L68.5802 44.883H68.1396Z" fill="#FFBB00"/>
<path d="M67.6992 44.883L68.6478 32.7903H69.0884L68.1398 44.883H67.6992Z" fill="#FFBA00"/>
<path d="M67.2607 44.883L68.2078 32.7903H68.6484L67.6998 44.883H67.2607Z" fill="#FFB900"/>
<path d="M67.0807 44.883L66.8213 44.863L67.7684 32.7903H68.2074L67.2603 44.883H67.0807Z" fill="#FFB800"/>
<path d="M66.8213 44.863L66.3838 44.8292L67.3278 32.7903H67.7684L66.8213 44.863Z" fill="#FFB700"/>
<path d="M66.3838 44.8292L65.9463 44.7939L66.8872 32.7903H67.3278L66.3838 44.8292Z" fill="#FFB600"/>
<path d="M65.9463 44.7939L65.5088 44.7602L66.4467 32.7903H66.8872L65.9463 44.7939Z" fill="#FFB500"/>
<path d="M65.5083 44.7602L65.0693 44.7264L66.0057 32.7903H66.4462L65.5083 44.7602Z" fill="#FFB400"/>
<path d="M65.0699 44.7264L65.0146 44.7218V39.8221L65.5657 32.7903H66.0063L65.0699 44.7264Z" fill="#FFB300"/>
<path d="M65.0146 34.2086L65.1267 32.7903H65.5657L65.0146 39.8221V34.2086Z" fill="#FFB200"/>
<path d="M65.1267 32.7903L65.0146 34.2086V32.7903H65.1267Z" fill="#FFB000"/>
</g>
<mask id="mask3_103_1576" style="mask-type:luminance" maskUnits="userSpaceOnUse" x="47" y="38" width="25" height="20">
<path d="M47.5322 56.2558C48.1646 57.1614 49.4387 57.539 50.5116 56.9097L71.0069 44.8845L65.0158 38.8582L47.5322 56.2558Z" fill="white"/>
</mask>
<g mask="url(#mask3_103_1576)">
<path d="M71.0083 40.8346L69.6943 38.8575H71.0083V40.8346Z" fill="#F83548"/>
<path d="M71.0092 42.8286L68.3721 38.8575H69.6952L71.0092 40.8346V42.8286Z" fill="#F73448"/>
<path d="M71.0091 44.8225L67.0488 38.8575H68.372L71.0091 42.8286V44.8225Z" fill="#F63449"/>
<path d="M71.0081 45.2539L70.2866 45.7312L65.7246 38.8575H67.0478L71.0081 44.8225V45.2539Z" fill="#F53349"/>
<path d="M70.2863 45.7312L69.3683 46.3422L64.418 38.8852L64.4609 38.8575H65.7242L70.2863 45.7312Z" fill="#F4324A"/>
<path d="M64.4192 38.8832L63.501 39.4928L68.4507 46.9483L69.3689 46.3388L64.4192 38.8832Z" fill="#F3324A"/>
<path d="M63.4993 39.4932L62.5811 40.1028L67.5308 47.5583L68.449 46.9487L63.4993 39.4932Z" fill="#F2314B"/>
<path d="M62.5813 40.1016L61.6631 40.7112L66.6128 48.1667L67.531 47.5571L62.5813 40.1016Z" fill="#F1304B"/>
<path d="M61.6623 40.7138L60.7441 41.3234L65.6938 48.7789L66.612 48.1693L61.6623 40.7138Z" fill="#F0304C"/>
<path d="M60.7444 41.3222L59.8262 41.9318L64.7759 49.3873L65.6941 48.7777L60.7444 41.3222Z" fill="#EF2F4C"/>
<path d="M59.8244 41.9317L58.9062 42.5413L63.856 49.9968L64.7741 49.3872L59.8244 41.9317Z" fill="#EE2E4D"/>
<path d="M58.9065 42.5439L57.9883 43.1534L62.938 50.609L63.8562 49.9994L58.9065 42.5439Z" fill="#ED2D4D"/>
<path d="M57.9875 43.1516L57.0693 43.7612L62.019 51.2168L62.9372 50.6072L57.9875 43.1516Z" fill="#EC2D4E"/>
<path d="M57.0686 43.7616L56.1504 44.3712L61.1001 51.8268L62.0183 51.2172L57.0686 43.7616Z" fill="#EB2C4E"/>
<path d="M56.1506 44.3722L55.2324 44.9818L60.1821 52.4374L61.1003 51.8278L56.1506 44.3722Z" fill="#EA2B4F"/>
<path d="M55.2326 44.9823L54.3145 45.5919L59.2642 53.0475L60.1824 52.4379L55.2326 44.9823Z" fill="#E92B4F"/>
<path d="M54.3118 45.5918L53.3936 46.2014L58.3433 53.657L59.2615 53.0474L54.3118 45.5918Z" fill="#E82A50"/>
<path d="M53.3948 46.2023L52.4766 46.8119L57.4263 54.2674L58.3445 53.6579L53.3948 46.2023Z" fill="#E72950"/>
<path d="M52.4758 46.8118L51.5576 47.4214L56.5073 54.8769L57.4255 54.2673L52.4758 46.8118Z" fill="#E62951"/>
<path d="M51.5569 47.4223L50.6387 48.0319L55.5884 55.4874L56.5066 54.8778L51.5569 47.4223Z" fill="#E52851"/>
<path d="M50.6379 48.0329L49.7197 48.6425L54.6694 56.098L55.5876 55.4884L50.6379 48.0329Z" fill="#E42752"/>
<path d="M49.719 48.6419L48.8008 49.2515L53.7505 56.707L54.6687 56.0974L49.719 48.6419Z" fill="#E32752"/>
<path d="M48.801 49.2508L47.8828 49.8604L52.8325 57.3159L53.7507 56.7063L48.801 49.2508Z" fill="#E22653"/>
<path d="M52.831 57.3185L52.4979 57.5395H51.6537L47.5322 51.3305V50.0964L47.8822 49.863L52.831 57.3185Z" fill="#E02553"/>
<path d="M50.3305 57.5394L47.5322 53.3243V51.3303L51.6537 57.5394H50.3305Z" fill="#DF2454"/>
<path d="M49.0074 57.5398L47.5322 55.3187V53.3247L50.3305 57.5398H49.0074Z" fill="#DE2454"/>
<path d="M47.6827 57.5399L47.5322 57.3127V55.3187L49.0074 57.5399H47.6827Z" fill="#DD2355"/>
</g>
</g>
<defs>
<clipPath id="clip0_103_1576">
<rect width="252.29" height="77.6768" fill="white" transform="translate(0.290039)"/>
</clipPath>
</defs>
</svg>