<svg width="253" height="78" viewBox="0 0 253 78" fill="none" xmlns="http://www.w3.org/2000/svg">
<g clip-path="url(#clip0_103_1549)">
<path d="M18.5304 0H233.76C243.987 0 252.29 8.30278 252.29 18.5304V59.1464C252.29 69.374 243.987 77.6768 233.76 77.6768H18.5304C8.30278 77.6768 0 69.374 0 59.1464V18.5304C0 8.30278 8.30278 0 18.5304 0Z" fill="white"/>
<path d="M99.3658 19.864C102.158 19.864 103.808 21.6062 103.808 24.5672C103.808 27.5282 102.164 29.2766 99.3658 29.2766H96.2021V19.864H99.3658ZM97.3764 28.219H99.2875C101.421 28.219 102.608 26.9142 102.608 24.5795C102.608 22.2448 101.427 20.9201 99.2875 20.9201H97.3764V28.219Z" fill="#151522"/>
<path d="M105.421 25.885C105.421 23.7191 106.686 22.376 108.565 22.376C110.443 22.376 111.702 23.7191 111.702 25.885C111.702 28.0508 110.437 29.394 108.565 29.394C106.692 29.394 105.421 28.0432 105.421 25.885ZM110.548 25.885C110.548 24.287 109.765 23.3737 108.565 23.3737C107.364 23.3737 106.575 24.287 106.575 25.885C106.575 27.4829 107.364 28.3962 108.565 28.3962C109.765 28.3962 110.548 27.4829 110.548 25.885Z" fill="#151522"/>
<path d="M120.25 29.2752H119.095L117.562 24.024H117.536L116.01 29.2752H114.856L112.957 22.4921H114.085L115.442 28.0104H115.468L117.002 22.4921H118.098L119.637 28.0104H119.663L121.02 22.4921H122.142L120.251 29.2752H120.25Z" fill="#151522"/>
<path d="M123.735 22.4926H124.805V23.5748H124.831C125.209 22.8441 125.933 22.3744 126.983 22.3744C128.471 22.3744 129.332 23.3338 129.332 24.8734V29.2757H128.198V25.0744C128.198 23.9785 127.682 23.3783 126.638 23.3783C125.594 23.3783 124.87 24.135 124.87 25.2832V29.2757H123.735V22.4926Z" fill="#151522"/>
<path d="M131.499 19.864H132.633V29.2766H131.499V19.864Z" fill="#151522"/>
<path d="M134.502 25.885C134.502 23.7191 135.767 22.376 137.646 22.376C139.524 22.376 140.783 23.7191 140.783 25.885C140.783 28.0508 139.518 29.394 137.646 29.394C135.773 29.394 134.502 28.0432 134.502 25.885ZM139.629 25.885C139.629 24.287 138.846 23.3737 137.646 23.3737C136.445 23.3737 135.656 24.287 135.656 25.885C135.656 27.4829 136.445 28.3962 137.646 28.3962C138.846 28.3962 139.629 27.4829 139.629 25.885Z" fill="#151522"/>
<path d="M142.319 27.3585C142.319 26.1981 143.213 25.4674 144.778 25.3753L146.722 25.2648V24.6968C146.722 23.8679 146.174 23.3721 145.234 23.3721C144.361 23.3721 143.813 23.7835 143.669 24.4482H142.573C142.651 23.2739 143.655 22.3744 145.26 22.3744C146.866 22.3744 147.856 23.2355 147.856 24.5863V29.2757H146.78V28.1076H146.754C146.35 28.8843 145.489 29.3924 144.576 29.3924C143.225 29.3924 142.319 28.5773 142.319 27.357V27.3585ZM146.722 26.7V26.1459L144.909 26.2564C143.996 26.3147 143.474 26.72 143.474 27.3585C143.474 27.9971 144.016 28.4284 144.831 28.4284C145.9 28.4284 146.722 27.6778 146.722 26.7Z" fill="#151522"/>
<path d="M149.634 25.8843C149.634 23.7583 150.802 22.3753 152.51 22.3753C153.482 22.3753 154.265 22.8511 154.67 23.5956H154.696V19.864H155.831V29.2766H154.748V28.1284H154.728C154.291 28.9113 153.516 29.3933 152.536 29.3933C150.808 29.3933 149.634 28.0102 149.634 25.8843ZM150.794 25.8843C150.794 27.4239 151.551 28.3955 152.751 28.3955C153.952 28.3955 154.702 27.4039 154.702 25.8843C154.702 24.3646 153.919 23.373 152.751 23.373C151.583 23.373 150.794 24.3508 150.794 25.8843Z" fill="#151522"/>
<path d="M161.104 25.885C161.104 23.7191 162.369 22.376 164.248 22.376C166.127 22.376 167.386 23.7191 167.386 25.885C167.386 28.0508 166.121 29.394 164.248 29.394C162.375 29.394 161.104 28.0432 161.104 25.885ZM166.231 25.885C166.231 24.287 165.449 23.3737 164.248 23.3737C163.048 23.3737 162.259 24.287 162.259 25.885C162.259 27.4829 163.048 28.3962 164.248 28.3962C165.449 28.3962 166.231 27.4829 166.231 25.885Z" fill="#151522"/>
<path d="M169.195 22.4926H170.265V23.5748H170.291C170.669 22.8441 171.393 22.3744 172.443 22.3744C173.931 22.3744 174.792 23.3338 174.792 24.8734V29.2757H173.658V25.0744C173.658 23.9785 173.142 23.3783 172.098 23.3783C171.054 23.3783 170.33 24.135 170.33 25.2832V29.2757H169.195V22.4926Z" fill="#151522"/>
<path d="M181.809 20.8545V22.4923H183.126V23.4256H181.809V27.4565C181.809 28.0766 182.07 28.356 182.65 28.356C182.781 28.356 183.042 28.3361 183.12 28.3238V29.2755C182.983 29.3077 182.67 29.3277 182.403 29.3277C181.157 29.3277 180.675 28.8196 180.675 27.5148V23.4256H179.663V22.4923H180.675V20.8545H181.809Z" fill="#151522"/>
<path d="M185.06 19.8645H186.194V23.5761H186.22C186.598 22.8193 187.342 22.3757 188.372 22.3757C189.859 22.3757 190.759 23.3796 190.759 24.8931V29.277H189.625V25.1018C189.625 24.0258 189.083 23.3796 188.021 23.3796C186.892 23.3796 186.194 24.1486 186.194 25.3229V29.2755H185.06V19.8629V19.8645Z" fill="#151522"/>
<path d="M198.484 27.3325C198.289 28.519 197.141 29.394 195.66 29.394C193.717 29.394 192.536 28.0432 192.536 25.9111C192.536 23.779 193.736 22.376 195.608 22.376C197.479 22.376 198.569 23.7068 198.569 25.7606V26.1904H193.703V26.2564C193.703 27.555 194.466 28.4085 195.686 28.4085C196.547 28.4085 197.18 27.971 197.368 27.3325H198.484ZM193.709 25.3032H197.394C197.368 24.1688 196.658 23.3599 195.588 23.3599C194.518 23.3599 193.781 24.175 193.709 25.3032Z" fill="#151522"/>
<path d="M102.045 36.8168H104.982L111.34 54.3249H108.488L106.887 49.5925H100.141L98.5272 54.3249H95.6768L102.047 36.8168H102.045ZM100.868 47.4082H106.145L103.537 39.7164H103.488L100.868 47.4082Z" fill="#151522"/>
<path d="M114.196 41.5619H116.817V43.7584H116.878C117.642 42.2419 119.05 41.3193 120.87 41.3193C124.122 41.3193 126.209 43.8674 126.209 47.9444V47.9567C126.209 52.0213 124.111 54.5817 120.907 54.5817C119.099 54.5817 117.632 53.6591 116.879 52.1794H116.818V58.5742H114.198V41.5634L114.196 41.5619ZM123.538 47.9567V47.9444C123.538 45.2259 122.24 43.565 120.189 43.565C118.138 43.565 116.804 45.2873 116.804 47.9444V47.9567C116.804 50.6014 118.212 52.3252 120.189 52.3252C122.166 52.3252 123.538 50.6506 123.538 47.9567Z" fill="#151522"/>
<path d="M129.477 41.5619H132.097V43.7584H132.158C132.923 42.2419 134.33 41.3193 136.151 41.3193C139.402 41.3193 141.489 43.8674 141.489 47.9444V47.9567C141.489 52.0213 139.391 54.5817 136.188 54.5817C134.379 54.5817 132.912 53.6591 132.16 52.1794H132.098V58.5742H129.478V41.5634L129.477 41.5619ZM138.819 47.9567V47.9444C138.819 45.2259 137.52 43.565 135.469 43.565C133.418 43.565 132.085 45.2873 132.085 47.9444V47.9567C132.085 50.6014 133.492 52.3252 135.469 52.3252C137.446 52.3252 138.819 50.6506 138.819 47.9567Z" fill="#151522"/>
<path d="M150.576 49.6662L150.563 49.4836H153.208L153.233 49.6417C153.475 51.2549 155.089 52.2619 157.431 52.2619C159.773 52.2619 161.253 51.2058 161.253 49.568V49.5557C161.253 48.1481 160.295 47.3837 157.978 46.8741L156.073 46.4734C152.639 45.7459 150.976 44.1679 150.976 41.5722V41.5599C150.989 38.5759 153.621 36.5251 157.322 36.5251C161.023 36.5251 163.473 38.5145 163.655 41.4509L163.668 41.6566H161.023L161.011 41.4862C160.768 39.8607 159.361 38.8783 157.285 38.8783C155.113 38.8906 153.73 39.9221 153.73 41.4509V41.4632C153.73 42.7741 154.725 43.5738 156.909 44.0481L158.826 44.4488C162.441 45.2132 163.995 46.6807 163.995 49.3869V49.3991C163.995 52.5904 161.471 54.6166 157.322 54.6166C153.391 54.6166 150.795 52.7485 150.576 49.6662Z" fill="#151522"/>
<path d="M168.099 50.965V43.6492H166.267V41.5616H168.099V38.2368H170.781V41.5616H173.171V43.6492H170.781V50.8084C170.781 52.107 171.363 52.4954 172.468 52.4954C172.747 52.4954 172.978 52.4708 173.171 52.4463V54.4724C172.867 54.5216 172.37 54.5814 171.837 54.5814C169.314 54.5814 168.099 53.5131 168.099 50.9665V50.965Z" fill="#151522"/>
<path d="M175.701 47.9444V47.9198C175.701 43.8429 178.116 41.3193 181.743 41.3193C185.37 41.3193 187.809 43.8306 187.809 47.9198V47.9444C187.809 52.0582 185.407 54.5817 181.755 54.5817C178.103 54.5817 175.701 52.0459 175.701 47.9444ZM185.129 47.9444V47.9198C185.129 45.1292 183.795 43.5159 181.744 43.5159C179.694 43.5159 178.384 45.1292 178.384 47.9198V47.9444C178.384 50.7718 179.718 52.3851 181.769 52.3851C183.82 52.3851 185.129 50.7595 185.129 47.9444Z" fill="#151522"/>
<path d="M191.079 41.5619H193.699V43.7462H193.761C194.174 42.2541 195.24 41.3193 196.697 41.3193C197.073 41.3193 197.4 41.3807 197.607 41.416V43.8551C197.402 43.7707 196.94 43.7093 196.43 43.7093C194.743 43.7093 193.701 44.813 193.701 46.7179V54.3253H191.081V41.5619H191.079Z" fill="#151522"/>
<path d="M199.359 47.992V47.9797C199.359 43.9872 201.665 41.3193 205.244 41.3193C208.824 41.3193 211.019 43.892 211.019 47.7249V48.6106H201.979C202.028 51.0251 203.35 52.4327 205.438 52.4327C206.991 52.4327 208.022 51.6314 208.349 50.6736L208.386 50.5769H210.873L210.848 50.7104C210.435 52.7366 208.471 54.5801 205.376 54.5801C201.628 54.5801 199.357 52.0198 199.357 47.992H199.359ZM202.016 46.7547H208.422C208.204 44.5459 206.965 43.4668 205.255 43.4668C203.545 43.4668 202.246 44.6196 202.016 46.7547Z" fill="#151522"/>
<path d="M72.3238 33.3477C70.6891 34.4836 69.5793 35.6241 68.9914 36.7692C68.4035 37.9158 68.1103 39.1561 68.1103 40.49C68.1103 41.5461 68.2853 42.5131 68.6337 43.3896C68.9822 44.2661 69.4749 45.0981 70.1134 45.8855C70.7505 46.673 71.8173 47.4543 73.3124 48.231C72.7337 49.9241 71.8372 51.6525 70.6231 53.4162C69.4074 55.1799 68.3068 56.4309 67.3198 57.1677C66.3328 57.9045 65.3918 58.2729 64.4954 58.2729C63.7785 58.2729 62.8115 58.0442 61.5958 57.5852L61.0278 57.3765L60.1007 56.9881C59.4437 56.7886 58.7161 56.6888 57.9195 56.6888C57.1228 56.6888 56.1865 56.8684 55.1703 57.2276L54.4534 57.4962L53.557 57.8554C52.8402 58.1348 52.1218 58.2745 51.405 58.2745C49.8899 58.2745 48.2659 57.2138 46.5329 55.0909C44.7999 52.968 43.489 50.687 42.6018 48.2463C41.7145 45.8057 41.2725 43.3405 41.2725 40.8492C41.2725 37.6411 42.1842 34.9717 44.0078 32.8396C45.8314 30.7075 48.3073 29.6422 51.4357 29.6422C52.5715 29.6422 53.6368 29.851 54.633 30.27L55.3207 30.5387L56.0376 30.838C56.6746 31.0974 57.1827 31.2263 57.5618 31.2263C58.119 31.2263 58.6777 31.1173 59.235 30.8978L60.1913 30.5387L60.8789 30.27C61.9949 29.851 63.2305 29.6422 64.5844 29.6422C67.7925 29.6422 70.3729 30.8779 72.3254 33.3477H72.3238ZM64.7318 19.1045C64.7717 19.5435 64.7916 19.8812 64.7916 20.1207C64.7916 21.3563 64.4324 22.6319 63.7156 23.9459C62.9988 25.2614 62.0609 26.2821 60.9066 27.0097C59.7507 27.7373 58.4751 28.1011 57.0814 28.1011C57.0215 27.6222 56.9923 27.2737 56.9923 27.0542C56.9923 25.9981 57.3055 24.8868 57.9333 23.7218C58.5611 22.5567 59.413 21.5651 60.489 20.7485C61.5651 19.9319 62.7808 19.4146 64.1347 19.1935C64.2544 19.1736 64.4524 19.1444 64.7318 19.1045Z" fill="#151522"/>
</g>
<defs>
<clipPath id="clip0_103_1549">
<rect width="252.29" height="77.6768" fill="white"/>
</clipPath>
</defs>
</svg>