<svg xmlns="http://www.w3.org/2000/svg" width="348" height="114" viewBox="0 0 348 114">
    <defs>
        <filter id="obcesw0gfa" width="154.2%" height="408%" x="-27.1%" y="-154%" filterUnits="objectBoundingBox">
            <feOffset dy="8" in="SourceAlpha" result="shadowOffsetOuter1"/>
            <feGaussianBlur in="shadowOffsetOuter1" result="shadowBlurOuter1" stdDeviation="16"/>
            <feColorMatrix in="shadowBlurOuter1" result="shadowMatrixOuter1" values="0 0 0 0 0.0333333333 0 0 0 0 0 0 0 0 0 0.2 0 0 0 0.08 0"/>
            <feMerge>
                <feMergeNode in="shadowMatrixOuter1"/>
                <feMergeNode in="SourceGraphic"/>
            </feMerge>
        </filter>
    </defs>
    <g fill="none" fill-rule="evenodd">
        <g>
            <g>
                <g filter="url(#obcesw0gfa)" transform="translate(-485 -7189) translate(463 6975) translate(54 238)">
                    <path fill="#FFF" d="M10.256 0h263.488c3.567 0 4.86.371 6.163 1.069 1.304.697 2.327 1.72 3.024 3.024.698 1.303 1.069 2.596 1.069 6.163v29.488c0 3.567-.371 4.86-1.069 6.163-.697 1.304-1.72 2.327-3.024 3.024-1.303.698-2.596 1.069-6.163 1.069H10.256c-3.567 0-4.86-.371-6.163-1.069-1.304-.697-2.327-1.72-3.024-3.024C.37 44.604 0 43.311 0 39.744V10.256c0-3.567.371-4.86 1.069-6.163.697-1.304 1.72-2.327 3.024-3.024C5.396.37 6.689 0 10.256 0z"/>
                    <path fill="#1E2945" fill-rule="nonzero" d="M152.838 30.219v-1.12c.715-.074 1.27-.312 1.667-.714.396-.403.595-.934.595-1.594 0-.414-.08-.775-.238-1.084-.158-.309-.404-.58-.738-.811-.334-.233-.799-.446-1.395-.64-.595-.193-1.023-.407-1.283-.644-.26-.236-.39-.553-.39-.952 0-.43.124-.764.37-1.005.246-.24.601-.36 1.066-.36.446 0 .799.162 1.06.486.262.324.393.762.393 1.313h1.078c0-.801-.182-1.432-.547-1.893-.366-.46-.876-.736-1.533-.826v-1.29h-.873v1.284c-.652.078-1.165.322-1.538.733-.373.41-.56.935-.56 1.576 0 .629.191 1.147.572 1.555.38.409.987.74 1.82.994.597.199 1.022.421 1.274.668.252.246.378.548.378.908 0 .426-.147.761-.44 1.008-.293.246-.695.369-1.207.369-.523 0-.928-.147-1.213-.44-.285-.293-.427-.71-.427-1.254h-1.084c0 .774.206 1.386.618 1.837.412.451.981.71 1.708.777v1.119h.867zm9.246-1.102c.922 0 1.6-.308 2.033-.926.434-.617.65-1.56.65-2.83v-1.406c-.011-1.226-.234-2.134-.667-2.722-.434-.587-1.11-.881-2.028-.881-.926 0-1.605.304-2.039.914-.433.609-.65 1.54-.65 2.795v1.447c.015 1.199.242 2.1.68 2.704.437.603 1.11.905 2.021.905zm0-.885c-.543 0-.948-.22-1.216-.659-.267-.44-.401-1.12-.401-2.042v-1.734c.008-.867.138-1.51.392-1.928.254-.418.659-.627 1.213-.627.559 0 .967.21 1.225.63.258.42.387 1.089.387 2.007v1.775c-.012.89-.148 1.543-.408 1.957-.26.414-.657.621-1.192.621zm4.875.832c.223 0 .392-.06.507-.181.115-.121.173-.272.173-.451 0-.188-.058-.344-.173-.47-.115-.124-.284-.187-.507-.187-.223 0-.39.063-.501.188-.111.125-.167.281-.167.469 0 .18.056.33.167.45.111.122.278.182.501.182zm4.904.053c.801 0 1.451-.224 1.951-.674.5-.449.75-1.056.75-1.822 0-.496-.127-.916-.383-1.26-.256-.343-.619-.59-1.087-.738.414-.172.741-.432.981-.78.24-.347.36-.706.36-1.077 0-.758-.228-1.35-.685-1.776-.457-.426-1.088-.638-1.893-.638-.761 0-1.39.223-1.883.67-.495.448-.742 1.01-.742 1.685h1.084c0-.441.14-.796.42-1.063.279-.268.653-.402 1.121-.402.997 0 1.495.5 1.495 1.5 0 .445-.147.799-.44 1.06-.293.262-.695.397-1.207.405h-.814v.885h.814c.574.008 1.014.144 1.318.41.305.266.457.646.457 1.143 0 .511-.138.904-.416 1.177-.277.274-.677.41-1.2.41-.493 0-.885-.134-1.178-.404-.293-.27-.44-.629-.44-1.078h-1.09c0 .71.251 1.283.753 1.717.502.433 1.154.65 1.954.65zm7.043 0c.852 0 1.515-.253 1.99-.759.474-.505.711-1.198.711-2.077 0-.875-.228-1.57-.685-2.083-.457-.513-1.074-.77-1.852-.77-.53 0-1.006.123-1.424.369l.258-2.326h3.451v-1.002h-4.37l-.434 4.254.867.222.287-.234c.27-.207.64-.31 1.113-.31.516 0 .93.172 1.24.518.31.346.465.804.465 1.374 0 .605-.143 1.08-.43 1.424-.287.344-.683.515-1.187.515-.46 0-.832-.124-1.113-.372s-.455-.616-.522-1.104h-1.025c.066.738.338 1.316.815 1.734.476.418 1.091.627 1.845.627zM126.025 29.117c1 0 1.806-.263 2.417-.79.612-.528.95-1.25 1.017-2.169h-1.758c-.039.52-.192.904-.46 1.152-.267.248-.673.372-1.216.372-.601 0-1.042-.213-1.32-.639-.28-.426-.42-1.1-.42-2.022v-.644c.008-.883.157-1.534.448-1.954.291-.42.73-.63 1.316-.63.539 0 .94.124 1.204.372s.417.648.46 1.198h1.758c-.094-.953-.442-1.693-1.043-2.22-.602-.528-1.395-.791-2.38-.791-.71 0-1.334.167-1.871.5-.537.335-.95.814-1.24 1.439-.289.625-.433 1.348-.433 2.168v.521c0 1.286.313 2.296.94 3.033.627.736 1.488 1.104 2.581 1.104zm6.346-.117v-3.006h1.541c1.012 0 1.804-.241 2.376-.723.572-.483.858-1.142.858-1.978 0-.55-.13-1.042-.392-1.474-.262-.431-.636-.764-1.122-.999-.486-.234-1.05-.351-1.69-.351h-3.329V29h1.758zm1.57-4.43h-1.57v-2.677h1.611c.434.007.774.14 1.02.398s.37.596.37 1.014c0 .406-.123.718-.367.937-.244.219-.599.328-1.064.328zm8.485 4.43l2.97-8.531h-1.957l-1.933 6.416-1.922-6.416h-1.951L140.592 29h1.834z"/>
                    <g fill="#0E51A0" fill-rule="nonzero">
                        <path d="M4.782 4.453L0 4.425 0.025 0 14.85 0.087 14.825 4.513 10.041 4.484 9.968 17.325 4.708 17.294 4.782 4.453" transform="translate(15 16)"/>
                        <path d="M23.377 14.248c-.006.945.035 2.012.548 2.815l-4.76-.029c-.115-.34-.184-.85-.157-1.188h-.048c-.995 1.157-2.435 1.488-3.944 1.479-2.356-.015-4.305-1.19-4.29-3.832.022-3.977 4.547-3.804 6.928-4.25.637-.118 1.274-.308 1.279-1.108.005-.849-.77-1.17-1.525-1.174-1.437-.007-1.725.742-1.75 1.276L11.32 8.21c.161-3.54 3.415-4.102 6.315-4.086 5.844.036 5.783 2.533 5.769 4.958l-.028 5.165zm-4.463-2.865c-.567.289-1.205.454-1.84.596-1.04.237-1.583.499-1.587 1.347-.003.584.606 1.169 1.454 1.174 1.06.006 1.888-.643 1.967-1.953l.006-1.164zM24.848 0l4.63.027-.034 5.99h.046c.706-1.042 1.95-1.653 3.33-1.645 4.067.024 5.147 3.548 5.13 6.447-.019 3.09-1.698 6.525-5.135 6.506-2.268-.015-2.965-.898-3.545-1.686h-.046l-.009 1.356-4.465-.027L24.848 0zm6.454 7.786c-1.66-.01-2.042 1.58-2.05 3.029-.009 1.473.356 3.069 2.015 3.079 1.661.008 2.044-1.58 2.053-3.055.008-1.45-.357-3.044-2.018-3.053zM44.923 13.2c-4.832-.027-6.995-3.165-6.973-6.653C37.971 3.06 40.17-.028 45.001 0c4.832.026 6.995 3.139 6.974 6.627-.021 3.488-2.22 6.6-7.052 6.573m.058-9.713c-1.86-.01-2.117 1.757-2.125 3.088-.008 1.332.228 3.127 2.088 3.137 1.858.01 2.117-1.78 2.124-3.113.009-1.333-.228-3.102-2.087-3.112" transform="translate(15 16)"/>
                        <path d="M56.472 13.2c-4.831-.028-6.994-3.166-6.972-6.653C49.52 3.06 51.72-.028 56.55 0c4.832.028 6.995 3.14 6.975 6.627-.021 3.488-2.22 6.598-7.053 6.573m.057-9.712c-1.857-.011-2.116 1.755-2.122 3.088-.01 1.332.226 3.125 2.086 3.135 1.857.012 2.116-1.78 2.125-3.111.007-1.333-.23-3.103-2.089-3.112M63.627 0L68.475.026 68.372 17.325 63.525 17.297 63.627 0M81.95 15.07c-.004.947.036 2.015.55 2.817l-4.761-.028c-.114-.34-.184-.85-.157-1.188l-.048-.001c-.996 1.157-2.434 1.489-3.942 1.48-2.358-.016-4.307-1.19-4.292-3.833.024-3.977 4.545-3.803 6.928-4.25.637-.119 1.275-.308 1.28-1.108.005-.85-.77-1.17-1.526-1.174-1.438-.007-1.724.742-1.75 1.274l-4.338-.024c.162-3.54 3.417-4.104 6.317-4.085 5.844.034 5.782 2.532 5.769 4.956l-.03 5.165zm-4.461-2.862c-.568.287-1.205.453-1.84.594-1.042.238-1.582.501-1.588 1.35-.003.582.607 1.167 1.454 1.172 1.061.005 1.889-.643 1.967-1.953l.007-1.163zM39.625 13.2c3.351 1.472 6.828 2.125 10.617 2.146 3.98.024 6.987-.593 10.808-2.023l-.022 4.054c-3.42 1.667-7.117 2.443-10.812 2.423-4.029-.024-6.931-.837-10.616-2.547l.025-4.053" transform="translate(15 16)"/>
                    </g>
                    <g>
                        <path fill="#DFE3EC" d="M48.83 0h17.54c3.21 0 4.373.334 5.547.962 1.173.627 2.094 1.548 2.721 2.721.628 1.174.962 2.338.962 5.547v17.54c0 3.21-.334 4.373-.962 5.547-.627 1.173-1.548 2.094-2.721 2.721-1.174.628-2.338.962-5.547.962H48.83c-3.21 0-4.373-.334-5.547-.962-1.173-.627-2.094-1.548-2.721-2.721-.628-1.174-.962-2.338-.962-5.547V9.23c0-3.21.334-4.373.962-5.547.627-1.173 1.548-2.094 2.721-2.721C44.457.334 45.621 0 48.83 0zM9.23 0h17.54c3.21 0 4.373.334 5.547.962 1.173.627 2.094 1.548 2.721 2.721.628 1.174.962 2.338.962 5.547v17.54c0 3.21-.334 4.373-.962 5.547-.627 1.173-1.548 2.094-2.721 2.721-1.174.628-2.338.962-5.547.962H9.23c-3.21 0-4.373-.334-5.547-.962C2.51 34.411 1.59 33.49.962 32.317.334 31.143 0 29.979 0 26.77V9.23c0-3.21.334-4.373.962-5.547C1.589 2.51 2.51 1.59 3.683.962 4.857.334 6.021 0 9.23 0z" opacity=".4" transform="translate(202 7)"/>
                        <path fill="#1F2C47" d="M10.8 17.1H25.200000000000003V18.900000000000002H10.8zM58.5 10.8v6.299l6.3.001v1.8l-6.3-.001V25.2h-1.8v-6.301l-6.3.001v-1.8l6.3-.001V10.8h1.8z" transform="translate(202 7)"/>
                    </g>
                </g>
            </g>
        </g>
    </g>
</svg>
